<?xml version="1.0" standalone="no"?>
<!DOCTYPE svg PUBLIC "-//W3C//DTD SVG 20010904//EN"
 "http://www.w3.org/TR/2001/REC-SVG-20010904/DTD/svg10.dtd">
<svg version="1.0" xmlns="http://www.w3.org/2000/svg"
 width="700.000000pt" height="700.000000pt" viewBox="0 0 700.000000 700.000000"
 preserveAspectRatio="xMidYMid meet">
<metadata>
Created by potrace 1.11, written by Peter Selinger 2001-2013
</metadata>
<g transform="translate(0.000000,700.000000) scale(0.100000,-0.100000)"
fill="#000000" stroke="none">
<path d="M3220 6745 c0 -197 -3 -255 -12 -256 -7 0 -57 -1 -110 -2 -85 -2 -99
-5 -112 -22 -45 -63 18 -57 -636 -57 -326 -1 -602 -3 -612 -6 -33 -8 -46 -44
-53 -147 -4 -55 -9 -116 -10 -135 -2 -19 -6 -75 -9 -125 -4 -49 -9 -112 -11
-140 -2 -27 -7 -86 -10 -130 -3 -44 -8 -102 -10 -130 -8 -90 -17 -209 -20
-260 -1 -27 -5 -84 -9 -125 -3 -41 -9 -106 -12 -145 -2 -38 -7 -90 -9 -115 -3
-25 -7 -87 -10 -139 -4 -51 -8 -110 -10 -130 -2 -20 -6 -76 -9 -126 -4 -49 -8
-110 -11 -135 -2 -25 -7 -79 -10 -120 -3 -41 -7 -106 -10 -145 -3 -38 -7 -92
-10 -120 -2 -27 -7 -84 -10 -125 -9 -126 -15 -212 -20 -270 -3 -30 -7 -89 -10
-130 -11 -151 -16 -216 -20 -265 -6 -65 -14 -160 -20 -260 -3 -44 -8 -101 -10
-126 -7 -61 7 -94 42 -106 15 -5 175 -8 356 -8 324 1 327 1 328 -19 7 -136 3
-155 -85 -391 -48 -126 -89 -237 -93 -245 -3 -8 -7 -19 -9 -25 -1 -5 -27 -75
-57 -155 -30 -80 -80 -215 -111 -300 -32 -85 -61 -164 -66 -175 -8 -19 -167
-445 -197 -530 -35 -97 -216 -584 -230 -616 -19 -45 -20 -112 -4 -161 23 -70
113 -128 196 -128 30 0 96 28 126 52 31 26 50 68 148 333 185 503 411 1110
420 1130 5 11 46 121 91 245 45 124 90 248 101 275 11 28 53 140 94 250 l74
200 414 3 415 2 1 -687 c0 -379 0 -705 1 -725 l0 -37 169 1 169 1 -1 724 -2
723 369 -2 368 -3 29 -80 c16 -44 33 -89 38 -100 5 -11 50 -132 101 -270 50
-137 96 -261 102 -275 5 -14 34 -90 63 -170 29 -80 109 -296 178 -480 69 -184
182 -488 252 -675 129 -348 144 -378 208 -411 44 -23 120 -27 167 -8 53 21
106 84 118 140 15 70 26 34 -143 489 -37 99 -94 252 -127 340 -33 88 -64 171
-68 185 -5 14 -18 50 -30 80 -11 30 -46 123 -76 205 -31 83 -66 177 -78 210
-13 33 -35 94 -50 135 -15 41 -31 84 -36 95 -5 11 -18 47 -30 80 -11 33 -25
69 -30 80 -4 11 -49 131 -99 266 -89 242 -91 247 -91 335 l0 90 309 0 c294 0
311 1 331 19 24 22 24 -3 4 325 l-6 95 30 -30 c16 -16 85 -82 153 -145 68 -63
133 -124 144 -135 12 -11 73 -67 135 -125 63 -58 124 -114 136 -125 11 -11 41
-38 65 -59 24 -22 71 -64 104 -94 128 -118 153 -140 245 -222 52 -47 97 -88
100 -91 3 -3 32 -29 65 -59 33 -29 96 -86 141 -126 112 -102 132 -117 149
-110 8 3 15 9 15 14 0 6 -33 52 -72 104 -40 52 -84 110 -98 128 -14 18 -30 38
-35 44 -6 6 -40 49 -75 96 -36 46 -72 94 -82 105 -9 11 -62 79 -118 150 -56
72 -115 146 -130 165 -22 28 -262 330 -317 400 -6 8 -27 33 -45 56 -18 22 -49
60 -68 84 -19 25 -49 60 -65 80 -17 19 -71 85 -120 145 -110 135 -106 130
-200 240 -42 50 -83 99 -90 110 -7 11 -16 61 -19 110 -11 161 -16 229 -21 285
-3 30 -8 98 -11 150 -2 52 -7 117 -9 145 -2 27 -7 88 -10 135 -3 47 -8 112
-10 145 -9 108 -14 188 -20 280 -3 50 -8 115 -10 145 -3 30 -7 91 -10 135 -3
44 -8 107 -10 140 -3 33 -7 96 -10 140 -3 44 -8 105 -10 136 -3 31 -7 98 -10
150 -3 52 -7 117 -10 144 -2 28 -6 86 -10 130 -15 203 -16 210 -37 232 l-20
21 -627 0 c-344 0 -633 1 -642 1 -9 1 -28 18 -43 40 l-27 38 -92 1 c-51 0
-101 1 -112 1 -20 1 -20 7 -20 254 l0 252 -217 3 -218 2 0 -255z"/>
</g>
</svg>
